<?xml version="1.0" standalone="no"?>
<!DOCTYPE svg PUBLIC "-//W3C//DTD SVG 20010904//EN"
 "http://www.w3.org/TR/2001/REC-SVG-20010904/DTD/svg10.dtd">
<svg version="1.0" xmlns="http://www.w3.org/2000/svg"
 width="16.000000pt" height="44.000000pt" viewBox="0 0 16.000000 44.000000"
 preserveAspectRatio="xMidYMid meet">
<metadata>
Created by potrace 1.10, written by Peter Selinger 2001-2011
</metadata>
<g transform="translate(0.000000,44.000000) scale(0.100000,-0.100000)"
fill="#5da8ef" stroke="none">
<path d="M57 422 c-24 -26 -44 -80 -52 -138 -8 -61 8 -186 31 -243 13 -34 21
-41 44 -41 23 0 31 7 45 43 45 112 41 286 -8 358 -27 40 -39 44 -60 21z m57
-39 c24 -55 36 -135 29 -192 -3 -28 -7 -51 -9 -51 -4 0 -28 19 -80 64 -29 24
-34 34 -34 73 0 56 36 143 60 143 10 0 24 -15 34 -37z m-4 -243 c18 0 19 -35
3 -83 -12 -34 -18 -45 -21 -32 -7 44 -15 50 -22 15 l-6 -35 -18 55 c-11 30
-21 62 -24 70 -4 8 14 -2 38 -22 24 -21 46 -36 49 -33 3 3 -12 20 -33 37 -32
26 -66 80 -66 104 0 3 21 -13 46 -35 26 -23 50 -41 54 -41z"/>
<path d="M70 305 c0 -63 4 -105 10 -105 6 0 10 42 10 105 0 63 -4 105 -10 105
-6 0 -10 -42 -10 -105z"/>
</g>
</svg>
