<?xml version="1.0" standalone="no"?>
<!DOCTYPE svg PUBLIC "-//W3C//DTD SVG 20010904//EN"
 "http://www.w3.org/TR/2001/REC-SVG-20010904/DTD/svg10.dtd">
<svg version="1.0" xmlns="http://www.w3.org/2000/svg"
 width="1888.000000pt" height="1888.000000pt" viewBox="0 0 1888.000000 1888.000000"
 preserveAspectRatio="xMidYMid meet">
<metadata>
Created by potrace 1.14, written by Peter Selinger 2001-2017
</metadata>
<g transform="translate(0.000000,1888.000000) scale(0.100000,-0.100000)"
fill="#000000" stroke="none">
<path d="M9290 18699 c-19 -5 -44 -10 -55 -13 -31 -6 -125 -44 -170 -68 -45
-23 -137 -79 -145 -88 -3 -3 -23 -17 -45 -32 -90 -62 -285 -244 -415 -388
-118 -130 -247 -288 -310 -379 -19 -27 -38 -50 -42 -51 -5 0 -8 -6 -8 -13 0
-7 -8 -22 -18 -33 -15 -16 -104 -149 -178 -264 -46 -72 -120 -196 -134 -225
-8 -17 -19 -37 -26 -45 -6 -8 -26 -44 -45 -80 -18 -36 -36 -67 -39 -70 -11
-11 -300 -601 -300 -613 0 -3 -16 -40 -35 -81 -19 -42 -35 -78 -35 -81 0 -2
-11 -28 -24 -57 -31 -68 -134 -326 -179 -448 -20 -52 -51 -138 -70 -190 -20
-52 -70 -201 -112 -330 -42 -129 -79 -242 -82 -250 -3 -8 -7 -20 -8 -26 -2 -6
-15 -48 -29 -95 -14 -46 -28 -93 -31 -104 -3 -11 -23 -83 -45 -160 -34 -115
-153 -572 -174 -666 -3 -13 -15 -62 -25 -109 -28 -122 -59 -261 -81 -369 -28
-130 -29 -136 -45 -225 -8 -43 -17 -86 -19 -95 -3 -9 -8 -36 -12 -61 -3 -25
-7 -49 -8 -55 -8 -32 -18 -84 -21 -110 -2 -16 -4 -30 -5 -30 -1 0 -3 -16 -6
-35 -5 -39 -12 -75 -14 -75 -1 0 -3 -12 -5 -26 -2 -15 -6 -43 -9 -63 -3 -20
-9 -53 -12 -73 -3 -21 -7 -49 -10 -63 -3 -14 -6 -38 -9 -55 -10 -86 -46 -354
-51 -380 -2 -16 -7 -59 -9 -95 -3 -36 -7 -85 -10 -110 -3 -25 -8 -79 -11 -120
-2 -41 -7 -104 -9 -140 -37 -502 -37 -1529 -1 -2130 3 -41 7 -129 11 -195 3
-66 8 -147 10 -180 2 -33 7 -100 10 -150 6 -98 7 -106 30 -415 3 -41 8 -93 10
-115 2 -22 7 -74 10 -115 3 -41 7 -93 10 -115 2 -22 7 -71 11 -110 3 -38 8
-86 10 -105 2 -19 6 -62 9 -95 2 -33 7 -80 10 -105 4 -25 8 -65 10 -90 2 -25
7 -63 10 -85 3 -22 8 -65 10 -95 3 -30 10 -89 15 -130 6 -41 12 -95 15 -120 4
-45 10 -93 21 -172 3 -24 7 -63 10 -88 2 -25 6 -60 9 -77 9 -56 14 -95 25
-183 6 -47 13 -100 15 -118 3 -17 7 -49 10 -70 9 -59 17 -116 20 -132 2 -8 6
-37 9 -65 10 -79 16 -119 21 -145 3 -14 7 -45 10 -70 3 -25 8 -55 10 -67 3
-12 8 -46 11 -75 3 -29 8 -56 10 -60 3 -4 7 -29 10 -55 2 -26 6 -55 9 -63 2
-8 7 -33 10 -55 4 -22 15 -94 27 -160 11 -66 22 -131 24 -145 7 -46 12 -75 14
-80 2 -3 2 -9 1 -13 -1 -5 3 -25 8 -45 5 -20 12 -53 15 -72 2 -19 7 -48 10
-65 4 -16 13 -66 21 -110 13 -74 20 -107 30 -160 11 -57 24 -122 28 -141 3
-12 8 -37 11 -55 3 -19 12 -66 20 -104 8 -39 17 -82 19 -95 3 -14 8 -36 11
-50 7 -28 15 -71 22 -115 3 -16 8 -37 11 -45 8 -19 9 -26 17 -75 6 -38 27
-131 52 -230 3 -13 13 -58 20 -92 3 -16 16 -73 30 -128 29 -115 35 -144 38
-165 1 -8 5 -22 8 -30 5 -13 51 -189 62 -240 2 -8 10 -35 17 -60 6 -25 13 -52
15 -60 3 -21 54 -212 61 -230 3 -8 7 -19 8 -25 2 -5 13 -44 25 -85 12 -41 24
-82 25 -90 2 -8 4 -16 5 -17 2 -2 4 -7 5 -13 1 -5 4 -12 5 -15 1 -3 3 -8 4
-12 6 -25 43 -143 74 -238 20 -60 37 -115 38 -121 1 -7 15 -50 32 -95 26 -73
53 -153 57 -169 1 -3 8 -18 15 -35 7 -16 14 -35 16 -42 3 -16 153 -401 174
-448 5 -11 20 -47 33 -80 13 -33 28 -69 32 -80 5 -11 9 -22 10 -25 1 -3 10
-23 19 -45 10 -22 28 -62 39 -89 61 -138 236 -478 250 -484 4 -2 7 -9 7 -16 0
-7 9 -21 20 -31 11 -10 20 -23 20 -29 0 -31 229 -304 313 -372 52 -43 141
-103 182 -124 28 -14 52 -28 53 -32 2 -5 10 -8 18 -8 8 0 22 -4 32 -10 47 -25
230 -77 305 -85 15 -2 39 -6 51 -9 83 -21 588 -29 736 -13 41 5 86 10 100 11
14 2 39 6 55 9 17 4 44 9 62 12 99 16 380 129 391 157 2 4 8 8 14 8 18 0 133
93 208 169 79 81 180 204 180 220 0 5 4 11 8 13 12 4 87 121 84 131 -1 4 2 7
7 7 5 0 11 8 15 18 3 9 17 35 31 57 37 60 174 333 235 470 77 175 83 189 86
200 2 8 95 235 139 340 4 11 9 25 10 30 3 9 53 135 78 195 5 14 12 33 14 43 1
10 9 30 17 45 7 15 21 52 31 82 10 30 20 60 24 65 3 6 6 15 7 20 2 6 17 48 34
95 18 47 34 92 35 100 2 8 25 76 51 150 25 74 48 144 50 155 2 11 8 29 13 40
9 19 72 216 77 242 1 6 16 56 32 110 31 100 61 206 67 233 2 8 13 47 25 85 12
39 23 77 25 85 2 8 19 76 38 150 57 218 122 481 132 528 2 9 15 69 29 132 15
63 28 124 31 135 2 11 6 29 8 40 3 11 13 56 22 100 9 44 19 89 21 100 2 11 6
31 9 45 7 36 23 121 30 150 3 14 8 39 10 55 3 17 8 37 10 45 2 8 7 31 10 50 3
19 10 60 15 90 6 30 12 67 15 83 3 15 7 39 10 55 3 15 8 43 10 62 3 19 9 46
12 60 4 14 7 32 9 40 1 8 7 49 13 90 7 41 14 86 16 100 2 14 6 41 10 60 4 19
8 46 10 60 2 14 6 39 9 55 2 17 8 55 11 85 4 30 8 57 10 60 2 3 6 30 9 60 3
30 8 66 11 80 2 14 6 45 9 70 3 25 8 56 11 70 3 14 7 48 10 75 2 28 7 64 9 80
3 17 8 57 12 90 4 33 8 62 9 65 1 3 5 39 9 80 4 41 9 86 11 100 2 14 6 52 10
85 3 33 8 76 10 95 5 45 16 147 20 185 2 17 6 66 9 110 4 44 8 96 11 115 4 35
11 119 21 240 2 36 7 92 9 125 3 33 7 89 10 125 3 36 7 108 10 160 3 52 8 124
10 160 4 60 9 163 20 425 23 547 23 1427 1 1960 -8 183 -16 337 -22 425 -2 41
-7 104 -9 140 -5 80 -14 214 -21 295 -3 33 -7 80 -9 105 -7 111 -17 217 -21
240 -2 14 -6 59 -10 100 -3 41 -7 89 -10 105 -2 17 -6 57 -9 90 -3 33 -8 76
-11 95 -3 19 -7 51 -9 70 -13 118 -22 199 -30 250 -3 14 -7 45 -10 70 -3 25
-8 61 -10 80 -3 19 -8 53 -10 75 -3 22 -12 81 -20 130 -8 50 -17 108 -20 130
-4 22 -8 51 -11 65 -2 14 -7 45 -10 70 -3 25 -8 48 -10 52 -2 3 -6 26 -9 50
-7 57 -11 82 -25 148 -6 30 -13 71 -16 90 -6 42 -9 61 -22 120 -6 25 -13 62
-16 84 -4 21 -8 41 -10 45 -3 3 -7 27 -11 51 -3 25 -10 59 -15 75 -6 17 -12
44 -14 60 -3 17 -7 41 -10 55 -13 56 -18 80 -17 85 0 2 -5 19 -10 37 -6 18
-12 44 -14 58 -5 29 -5 30 -40 170 -15 58 -28 113 -30 123 -2 10 -7 27 -10 37
-3 10 -8 27 -10 37 -6 26 -40 155 -64 243 -11 41 -39 136 -61 210 -23 74 -43
142 -45 150 -2 8 -13 42 -25 75 -11 33 -23 68 -25 79 -12 50 -163 473 -190
533 -8 17 -15 34 -15 38 0 4 -6 21 -14 38 -44 101 -66 155 -66 160 0 3 -16 39
-35 80 -19 41 -35 77 -35 80 0 4 -31 72 -70 152 -38 80 -70 148 -70 151 0 3
-9 19 -21 35 -11 16 -17 29 -13 29 4 0 0 8 -8 18 -8 9 -30 49 -49 87 -19 39
-37 72 -40 75 -3 3 -14 21 -24 40 -59 117 -335 550 -357 558 -4 2 -8 10 -8 17
0 8 -6 20 -13 27 -7 7 -54 72 -104 143 -51 72 -96 135 -100 140 -5 6 -20 26
-33 45 -14 19 -27 37 -30 40 -3 3 -35 43 -70 90 -71 92 -66 87 -201 245 -146
171 -337 357 -437 424 -20 13 -39 27 -42 31 -17 22 -222 128 -262 135 -11 2
-29 7 -41 11 -55 19 -252 27 -307 13z m295 -699 c193 -55 410 -216 635 -470
36 -40 72 -82 80 -94 8 -12 25 -33 38 -47 37 -43 165 -225 233 -333 79 -127
219 -377 219 -392 0 -6 7 -17 15 -24 8 -7 15 -19 15 -27 0 -8 7 -21 15 -30 8
-8 13 -19 10 -24 -4 -5 -1 -9 6 -9 7 0 9 -3 6 -7 -4 -3 -3 -11 2 -17 14 -17
110 -240 185 -431 37 -93 72 -181 78 -195 14 -34 24 -58 38 -100 7 -19 16 -44
20 -55 13 -32 169 -479 174 -500 1 -5 13 -44 26 -85 13 -41 25 -79 26 -85 2
-5 22 -71 44 -145 23 -74 44 -142 45 -150 2 -8 20 -69 39 -135 41 -141 124
-455 132 -498 2 -17 7 -33 9 -37 2 -3 6 -17 9 -31 2 -13 16 -71 31 -129 15
-58 29 -114 31 -125 5 -28 43 -201 54 -250 14 -62 49 -227 54 -255 2 -14 7
-36 10 -50 3 -14 8 -36 10 -50 3 -14 10 -50 16 -80 6 -30 19 -102 30 -160 11
-58 21 -116 24 -130 3 -14 7 -41 10 -60 3 -19 8 -46 10 -60 5 -24 17 -95 32
-185 3 -22 8 -53 9 -70 2 -16 4 -30 5 -30 2 0 5 -18 15 -100 4 -33 9 -62 10
-65 2 -3 6 -30 10 -60 3 -30 8 -62 10 -70 3 -13 11 -69 20 -150 2 -14 6 -41 9
-60 3 -19 8 -60 11 -90 3 -30 7 -66 9 -80 2 -14 6 -50 10 -80 3 -30 8 -68 10
-85 2 -16 7 -61 11 -100 3 -38 8 -81 10 -95 2 -14 7 -61 10 -105 4 -44 8 -98
11 -120 12 -135 13 -152 29 -380 48 -678 51 -1487 9 -2035 -3 -47 -7 -103 -9
-125 -5 -74 -16 -200 -20 -230 -6 -44 -13 -112 -20 -180 -3 -33 -8 -76 -11
-95 -3 -19 -7 -55 -9 -80 -3 -45 -14 -133 -20 -174 -2 -11 -6 -46 -10 -76 -8
-83 -14 -132 -20 -165 -3 -16 -7 -55 -10 -86 -3 -31 -8 -67 -10 -80 -3 -13 -7
-46 -10 -72 -3 -26 -7 -60 -9 -75 -3 -15 -8 -47 -11 -72 -3 -25 -8 -56 -10
-70 -2 -14 -7 -45 -10 -70 -6 -48 -23 -159 -30 -200 -2 -14 -11 -70 -20 -125
-9 -55 -27 -161 -42 -235 -14 -74 -27 -146 -29 -160 -3 -14 -16 -70 -30 -125
-13 -55 -26 -108 -29 -118 -8 -36 -18 -62 -37 -105 -24 -51 -43 -53 -120 -16
-47 24 -254 156 -297 189 -9 7 -92 70 -186 141 -93 70 -193 146 -221 168 -28
23 -66 52 -84 66 -18 14 -38 30 -44 36 -6 6 -33 27 -59 47 -26 20 -54 42 -61
49 -8 7 -26 22 -40 32 -15 11 -41 31 -59 46 -50 42 -220 182 -262 215 -21 17
-43 35 -49 40 -6 6 -49 42 -96 80 -47 39 -96 80 -110 92 -31 27 -53 45 -129
107 -34 28 -61 53 -61 58 0 4 -6 8 -14 8 -8 0 -21 8 -28 18 -7 9 -29 29 -50
44 -20 15 -42 33 -50 40 -7 8 -42 38 -78 68 -35 30 -70 60 -76 65 -6 6 -30 26
-54 45 -24 19 -48 40 -54 45 -6 6 -56 49 -111 95 -55 47 -102 87 -105 90 -3 3
-32 27 -65 55 -33 27 -62 52 -65 55 -3 3 -36 32 -75 65 -38 33 -75 64 -81 70
-7 5 -20 17 -30 25 -44 36 -240 205 -256 219 -9 9 -36 32 -59 51 -23 19 -54
46 -68 60 -15 14 -38 34 -52 45 -14 11 -54 45 -89 75 -35 30 -75 65 -89 77
-14 13 -33 28 -41 35 -15 14 -67 57 -139 117 -24 20 -51 43 -61 51 -141 122
-226 198 -296 265 -23 22 -57 54 -75 71 -82 75 -258 265 -332 359 -26 33 -54
67 -61 76 -7 8 -21 30 -32 47 -10 18 -22 32 -26 32 -4 0 -8 4 -8 9 0 4 -20 39
-45 76 -60 92 -171 316 -167 338 1 4 -2 7 -8 7 -6 0 -9 3 -8 8 0 4 -2 14 -5
22 -18 44 -67 207 -66 220 0 3 -4 18 -10 33 -6 15 -13 40 -16 55 -3 15 -7 38
-10 52 -3 14 -7 37 -10 52 -2 15 -6 36 -10 47 -3 10 -8 38 -11 62 -8 68 -12
92 -17 124 -3 17 -8 59 -11 95 -4 36 -9 91 -11 123 -15 159 -18 288 -18 697 0
460 2 525 28 770 3 25 7 70 10 100 3 30 7 66 10 80 2 14 6 50 10 80 3 30 8 66
11 80 2 14 6 43 9 65 2 22 8 63 14 90 5 28 12 70 16 95 7 52 13 85 20 120 3
14 7 37 10 53 3 15 7 39 10 55 3 15 7 38 10 52 4 14 7 34 9 45 2 11 6 34 10
50 3 17 8 40 10 51 3 12 14 66 26 120 12 55 23 106 25 114 1 8 8 35 15 60 7
25 14 56 17 70 2 14 24 104 49 200 26 96 48 182 50 190 1 8 12 43 23 78 10 34
17 62 15 62 -3 0 2 14 11 30 9 17 13 30 11 30 -3 0 -1 12 4 28 74 240 112 360
117 372 3 8 7 17 8 20 0 3 12 37 25 75 13 39 25 72 25 75 5 30 190 524 255
680 29 69 64 154 78 190 15 36 30 67 34 68 5 2 8 10 8 17 0 33 266 572 395
800 112 199 351 562 377 573 5 2 8 10 8 18 0 8 4 14 8 14 4 0 24 21 44 48 20
26 55 67 78 92 22 25 49 54 59 65 37 42 170 164 197 181 16 10 31 21 34 25 9
11 113 74 152 93 124 57 256 69 373 36z m-3020 -8762 c62 -33 178 -110 278
-185 31 -24 61 -43 66 -43 5 0 11 -4 13 -8 2 -4 50 -44 108 -87 58 -44 110
-84 116 -90 7 -5 24 -19 40 -30 15 -11 32 -25 38 -30 6 -6 31 -26 56 -45 25
-19 54 -42 65 -52 21 -17 73 -59 146 -118 103 -82 285 -234 294 -244 6 -6 26
-23 45 -38 19 -14 49 -39 66 -55 17 -15 42 -37 56 -48 46 -37 121 -100 142
-120 12 -11 48 -42 81 -70 33 -27 67 -57 75 -65 9 -8 42 -37 74 -65 32 -27 72
-62 88 -77 16 -15 47 -42 69 -60 23 -18 55 -46 73 -63 48 -43 93 -83 166 -145
36 -30 67 -57 70 -60 3 -3 48 -41 100 -85 52 -44 97 -82 100 -85 7 -8 237
-198 290 -240 24 -19 54 -45 67 -57 13 -13 28 -23 33 -23 4 0 10 -4 12 -8 4
-9 53 -49 297 -240 58 -45 117 -91 131 -102 46 -36 136 -105 164 -125 57 -41
121 -90 134 -102 7 -7 17 -13 22 -13 5 0 15 -6 22 -13 19 -18 175 -128 223
-157 22 -13 42 -27 45 -31 3 -3 19 -14 35 -23 17 -9 46 -26 65 -38 97 -58 169
-87 226 -92 87 -7 122 -15 190 -47 110 -51 202 -153 267 -292 15 -32 27 -59
27 -62 0 -2 5 -16 12 -32 6 -15 13 -37 15 -48 2 -11 8 -31 13 -45 5 -14 11
-36 14 -50 2 -14 9 -52 15 -85 16 -87 21 -124 25 -177 3 -26 7 -52 10 -57 4
-5 2 -12 -3 -15 -5 -4 -6 -18 -2 -34 9 -32 7 -363 -3 -472 -4 -41 -9 -97 -11
-125 -2 -27 -9 -85 -14 -128 -6 -43 -10 -81 -10 -85 1 -4 1 -9 -1 -12 -1 -3
-3 -18 -5 -35 -8 -59 -23 -155 -36 -225 -6 -30 -12 -66 -14 -80 -5 -32 -12
-68 -31 -156 -8 -39 -17 -77 -18 -85 -15 -75 -22 -110 -47 -212 -16 -64 -31
-127 -33 -140 -3 -12 -5 -23 -5 -24 -1 -2 -1 -4 0 -5 0 -2 -4 -15 -10 -31 -6
-15 -13 -38 -15 -50 -16 -87 -221 -762 -256 -842 -4 -11 -20 -51 -33 -90 -14
-38 -46 -126 -72 -195 -25 -69 -47 -129 -49 -135 -2 -5 -8 -23 -14 -38 -7 -16
-12 -31 -12 -34 0 -3 -6 -19 -14 -36 -8 -18 -33 -81 -56 -142 -23 -60 -45
-119 -50 -130 -5 -11 -20 -46 -34 -78 -14 -32 -26 -60 -26 -62 0 -9 -63 -144
-121 -258 -92 -183 -160 -276 -223 -302 -34 -15 -52 -10 -82 19 -34 34 -78
149 -89 234 -2 17 -6 39 -9 49 -2 10 -7 38 -10 63 -3 25 -8 56 -11 70 -10 50
-17 85 -19 105 -2 11 -6 34 -9 50 -4 17 -9 44 -12 60 -3 17 -7 39 -9 50 -2 11
-11 54 -19 95 -9 41 -18 87 -21 103 -4 15 -8 38 -11 52 -4 19 -76 301 -89 350
-10 36 -49 153 -75 223 -97 261 -207 361 -309 281 -28 -22 -92 -104 -92 -118
0 -5 -9 -25 -20 -44 -11 -19 -31 -67 -45 -108 -14 -41 -30 -83 -35 -94 -5 -11
-15 -40 -21 -65 -17 -62 -19 -68 -20 -75 0 -2 -9 -35 -20 -72 -11 -38 -22 -80
-24 -95 -3 -16 -12 -58 -21 -95 -9 -38 -18 -77 -20 -88 -2 -11 -7 -31 -10 -45
-3 -14 -7 -38 -10 -55 -2 -16 -8 -52 -14 -80 -5 -27 -12 -66 -14 -85 -3 -19
-7 -44 -9 -55 -3 -11 -8 -38 -12 -60 -4 -22 -9 -51 -12 -65 -2 -14 -6 -38 -8
-55 -3 -24 -30 -181 -49 -280 -8 -44 -16 -92 -21 -130 -9 -61 -13 -84 -25
-142 -6 -29 -9 -57 -5 -63 3 -5 2 -10 -3 -10 -5 0 -9 -6 -9 -12 0 -14 -2 -22
-38 -238 -13 -80 -26 -155 -28 -167 -5 -38 -13 -35 -27 9 -8 24 -44 134 -81
245 -37 112 -65 203 -62 203 3 0 1 6 -4 13 -9 11 -41 103 -48 137 -2 8 -8 29
-15 45 -6 17 -11 30 -11 30 1 0 -25 79 -57 175 -33 96 -60 180 -62 185 -1 6
-4 15 -6 20 -2 6 -40 123 -85 260 -44 138 -99 304 -121 370 -22 66 -41 125
-43 130 -1 6 -4 17 -7 25 -11 29 -36 106 -93 280 -64 198 -112 335 -126 365
-6 12 -11 27 -13 35 -2 8 -6 22 -9 30 -13 29 -225 630 -231 655 -2 6 -6 17 -9
25 -14 34 -622 1841 -632 1880 -7 26 -76 214 -86 235 -5 11 -8 30 -6 43 6 40
28 45 107 27 94 -21 334 -151 560 -304 135 -91 184 -125 190 -132 3 -3 20 -14
38 -24 17 -11 32 -23 32 -27 0 -4 6 -8 14 -8 8 0 16 -3 18 -7 4 -9 166 -133
174 -133 3 0 19 -13 37 -30 18 -16 35 -30 38 -30 3 0 17 -9 30 -21 48 -41 65
-55 104 -83 22 -16 47 -35 55 -43 8 -7 35 -29 60 -49 25 -19 67 -54 94 -77 27
-23 56 -46 64 -51 8 -4 22 -16 31 -25 9 -9 41 -36 70 -61 30 -25 62 -52 72
-62 9 -9 88 -76 176 -148 87 -73 172 -144 189 -159 17 -16 49 -41 70 -57 22
-16 41 -32 44 -35 3 -3 28 -24 56 -45 43 -33 134 -104 169 -132 6 -4 73 -55
150 -113 77 -57 144 -107 150 -112 101 -77 381 -267 393 -267 6 0 12 -3 14 -8
2 -4 44 -31 93 -60 50 -29 97 -57 105 -62 32 -19 125 -63 133 -62 4 1 7 -2 7
-8 0 -6 3 -9 8 -8 4 0 14 -1 22 -5 87 -34 157 -41 185 -21 43 32 11 139 -83
279 -26 38 -52 75 -58 80 -6 6 -17 19 -25 31 -31 47 -146 178 -264 303 -109
115 -455 453 -455 445 0 -2 -15 11 -33 29 -33 31 -146 132 -194 172 -13 11
-34 29 -47 40 -12 11 -44 38 -70 60 -26 22 -55 47 -65 55 -9 8 -35 28 -56 45
-22 16 -50 39 -61 50 -12 11 -41 36 -65 55 -23 19 -66 55 -93 79 -28 24 -62
54 -75 65 -53 45 -529 524 -571 575 -25 29 -61 70 -80 90 -19 20 -57 64 -84
96 -27 33 -54 65 -60 70 -6 6 -27 30 -46 55 -19 25 -37 47 -40 50 -33 28 -403
513 -500 655 -25 36 -53 75 -62 87 -10 12 -18 25 -18 29 0 4 -6 14 -13 21 -20
20 -157 227 -157 238 0 4 -3 10 -8 12 -8 3 -132 196 -132 205 0 3 -11 21 -25
39 -14 18 -25 36 -25 40 0 4 -11 22 -26 41 -14 18 -22 33 -18 33 4 0 0 8 -8
18 -8 9 -28 42 -44 72 -16 30 -32 57 -35 60 -18 15 -299 563 -299 584 0 9 -3
16 -7 16 -5 0 -17 21 -27 48 -11 26 -30 72 -44 102 -36 83 -38 88 -77 190 -61
158 -120 339 -131 400 -3 14 -8 34 -11 45 -4 11 -8 27 -9 35 -1 8 -9 53 -18
100 -18 98 -31 243 -22 265 6 18 30 10 121 -37z"/>
<path d="M9396 17568 c-24 -23 -81 -118 -70 -118 4 0 1 -7 -6 -15 -7 -8 -9
-15 -5 -15 4 0 3 -6 -2 -12 -6 -7 -14 -26 -18 -43 -5 -16 -9 -34 -11 -40 -6
-20 -13 -52 -29 -120 -9 -38 -18 -79 -20 -90 -3 -11 -7 -38 -10 -60 -3 -22 -7
-47 -10 -55 -2 -8 -7 -35 -10 -60 -3 -25 -8 -56 -10 -70 -2 -14 -7 -45 -10
-70 -3 -25 -8 -56 -10 -70 -2 -14 -6 -50 -9 -80 -4 -30 -8 -71 -10 -90 -12
-99 -26 -231 -31 -299 -4 -53 -9 -113 -20 -256 -3 -33 -7 -96 -10 -140 -3 -44
-8 -114 -11 -155 -2 -41 -7 -111 -9 -155 -2 -44 -7 -126 -10 -181 -9 -169 -24
-559 -30 -779 -19 -758 -24 -1778 -10 -2495 4 -223 8 -449 8 -502 1 -54 6 -98
10 -98 5 0 5 -5 1 -12 -5 -7 -7 -26 -6 -43 1 -16 4 -82 6 -145 13 -330 23
-542 31 -676 3 -49 8 -129 10 -179 5 -96 10 -162 21 -290 3 -44 8 -102 10
-130 6 -82 19 -231 30 -325 2 -19 6 -55 8 -80 2 -25 6 -61 9 -80 4 -19 9 -59
12 -89 3 -30 7 -64 10 -75 2 -12 6 -41 9 -66 3 -25 8 -58 11 -75 4 -16 8 -43
10 -60 2 -16 6 -42 9 -57 3 -16 8 -38 10 -50 15 -81 51 -224 72 -288 36 -105
70 -165 109 -185 31 -17 33 -17 64 1 47 28 118 185 145 324 3 14 12 59 21 100
22 100 22 98 29 150 3 25 8 54 10 65 11 59 28 181 42 304 3 25 7 57 9 71 14
126 25 241 40 435 3 39 8 90 10 115 2 25 7 90 10 145 3 55 8 123 10 150 3 28
7 100 10 160 3 61 8 148 10 195 3 47 7 139 10 205 2 66 7 186 10 267 41 1017
36 2827 -10 3848 -2 52 -7 154 -10 225 -3 72 -8 162 -10 200 -3 39 -7 113 -10
165 -3 52 -8 120 -10 150 -2 30 -6 91 -9 135 -7 94 -15 194 -21 250 -2 22 -7
72 -10 110 -8 90 -15 161 -21 205 -3 19 -6 49 -8 65 -3 17 -7 55 -11 85 -4 30
-8 66 -10 80 -5 48 -21 150 -31 203 -4 17 -7 41 -8 52 -1 11 -5 29 -9 40 -3
11 -8 38 -12 60 -3 22 -13 67 -21 100 -9 33 -17 65 -18 70 -8 36 -37 117 -56
158 -47 100 -103 131 -154 85z"/>
</g>
</svg>
